<?xml version="1.0" encoding="utf-8" standalone="no"?>
<!DOCTYPE svg PUBLIC "-//W3C//DTD SVG 1.1//EN"
  "http://www.w3.org/Graphics/SVG/1.1/DTD/svg11.dtd">
<!-- Created with matplotlib (https://matplotlib.org/) -->
<svg height="201.25372pt" version="1.1" viewBox="0 0 311.777652 201.25372" width="311.777652pt" xmlns="http://www.w3.org/2000/svg" xmlns:xlink="http://www.w3.org/1999/xlink">
 <defs>
  <style type="text/css">
*{stroke-linecap:butt;stroke-linejoin:round;white-space:pre;}
  </style>
 </defs>
 <g id="figure_1">
  <g id="patch_1">
   <path d="M 0 201.25372 
L 311.777652 201.25372 
L 311.777652 0 
L 0 0 
z
" style="fill:#ffffff;"/>
  </g>
  <g id="axes_1">
   <g id="patch_2">
    <path d="M 31.55625 169.840125 
L 310.55625 169.840125 
L 310.55625 14.608125 
L 31.55625 14.608125 
z
" style="fill:#ffffff;"/>
   </g>
   <g id="PathCollection_1">
    <defs>
     <path d="M 0 3 
C 0.795609 3 1.55874 2.683901 2.12132 2.12132 
C 2.683901 1.55874 3 0.795609 3 0 
C 3 -0.795609 2.683901 -1.55874 2.12132 -2.12132 
C 1.55874 -2.683901 0.795609 -3 0 -3 
C -0.795609 -3 -1.55874 -2.683901 -2.12132 -2.12132 
C -2.683901 -1.55874 -3 -0.795609 -3 0 
C -3 0.795609 -2.683901 1.55874 -2.12132 2.12132 
C -1.55874 2.683901 -0.795609 3 0 3 
z
" id="m12a1c2b9d8" style="stroke:#1f77b4;"/>
    </defs>
    <g clip-path="url(#pa4d149adfb)">
     <use style="fill:#1f77b4;stroke:#1f77b4;" x="46.368361" xlink:href="#m12a1c2b9d8" y="94.143827"/>
     <use style="fill:#1f77b4;stroke:#1f77b4;" x="96.243517" xlink:href="#m12a1c2b9d8" y="136.16513"/>
     <use style="fill:#1f77b4;stroke:#1f77b4;" x="146.118672" xlink:href="#m12a1c2b9d8" y="102.552227"/>
     <use style="fill:#1f77b4;stroke:#1f77b4;" x="195.993828" xlink:href="#m12a1c2b9d8" y="75.029594"/>
     <use style="fill:#1f77b4;stroke:#1f77b4;" x="245.868983" xlink:href="#m12a1c2b9d8" y="88.053559"/>
     <use style="fill:#1f77b4;stroke:#1f77b4;" x="295.744139" xlink:href="#m12a1c2b9d8" y="39.522861"/>
    </g>
   </g>
   <g id="PathCollection_2">
    <defs>
     <path d="M 0 3 
C 0.795609 3 1.55874 2.683901 2.12132 2.12132 
C 2.683901 1.55874 3 0.795609 3 0 
C 3 -0.795609 2.683901 -1.55874 2.12132 -2.12132 
C 1.55874 -2.683901 0.795609 -3 0 -3 
C -0.795609 -3 -1.55874 -2.683901 -2.12132 -2.12132 
C -2.683901 -1.55874 -3 -0.795609 -3 0 
C -3 0.795609 -2.683901 1.55874 -2.12132 2.12132 
C -1.55874 2.683901 -0.795609 3 0 3 
z
" id="m00d6ba0842" style="stroke:#ff7f0e;"/>
    </defs>
    <g clip-path="url(#pa4d149adfb)">
     <use style="fill:#ff7f0e;stroke:#ff7f0e;" x="46.368361" xlink:href="#m00d6ba0842" y="98.976717"/>
     <use style="fill:#ff7f0e;stroke:#ff7f0e;" x="96.243517" xlink:href="#m00d6ba0842" y="138.369424"/>
     <use style="fill:#ff7f0e;stroke:#ff7f0e;" x="146.118672" xlink:href="#m00d6ba0842" y="100.554909"/>
     <use style="fill:#ff7f0e;stroke:#ff7f0e;" x="195.993828" xlink:href="#m00d6ba0842" y="73.451402"/>
     <use style="fill:#ff7f0e;stroke:#ff7f0e;" x="245.868983" xlink:href="#m00d6ba0842" y="87.106643"/>
     <use style="fill:#ff7f0e;stroke:#ff7f0e;" x="295.744139" xlink:href="#m00d6ba0842" y="37.634205"/>
    </g>
   </g>
   <g id="matplotlib.axis_1">
    <g id="xtick_1">
     <g id="line2d_1">
      <path clip-path="url(#pa4d149adfb)" d="M 46.368361 169.840125 
L 46.368361 14.608125 
" style="fill:none;stroke:#b0b0b0;stroke-linecap:square;stroke-width:0.8;"/>
     </g>
     <g id="line2d_2">
      <defs>
       <path d="M 0 0 
L 0 3.5 
" id="m4d8771cd4f" style="stroke:#000000;stroke-width:0.8;"/>
      </defs>
      <g>
       <use style="stroke:#000000;stroke-width:0.8;" x="46.368361" xlink:href="#m4d8771cd4f" y="169.840125"/>
      </g>
     </g>
     <g id="text_1">
      <text style="font-family:Helvetica;font-size:10px;font-style:normal;font-weight:normal;" transform="translate(35.606257 196.948598)rotate(-30)">NB 45</text>
     </g>
    </g>
    <g id="xtick_2">
     <g id="line2d_3">
      <path clip-path="url(#pa4d149adfb)" d="M 96.243517 169.840125 
L 96.243517 14.608125 
" style="fill:none;stroke:#b0b0b0;stroke-linecap:square;stroke-width:0.8;"/>
     </g>
     <g id="line2d_4">
      <g>
       <use style="stroke:#000000;stroke-width:0.8;" x="96.243517" xlink:href="#m4d8771cd4f" y="169.840125"/>
      </g>
     </g>
     <g id="text_2">
      <text style="font-family:Helvetica;font-size:10px;font-style:normal;font-weight:normal;" transform="translate(83.316349 199.448598)rotate(-30)">NB 15k</text>
     </g>
    </g>
    <g id="xtick_3">
     <g id="line2d_5">
      <path clip-path="url(#pa4d149adfb)" d="M 146.118672 169.840125 
L 146.118672 14.608125 
" style="fill:none;stroke:#b0b0b0;stroke-linecap:square;stroke-width:0.8;"/>
     </g>
     <g id="line2d_6">
      <g>
       <use style="stroke:#000000;stroke-width:0.8;" x="146.118672" xlink:href="#m4d8771cd4f" y="169.840125"/>
      </g>
     </g>
     <g id="text_3">
      <text style="font-family:Helvetica;font-size:10px;font-style:normal;font-weight:normal;" transform="translate(135.600137 196.667348)rotate(-30)">RF 45</text>
     </g>
    </g>
    <g id="xtick_4">
     <g id="line2d_7">
      <path clip-path="url(#pa4d149adfb)" d="M 195.993828 169.840125 
L 195.993828 14.608125 
" style="fill:none;stroke:#b0b0b0;stroke-linecap:square;stroke-width:0.8;"/>
     </g>
     <g id="line2d_8">
      <g>
       <use style="stroke:#000000;stroke-width:0.8;" x="195.993828" xlink:href="#m4d8771cd4f" y="169.840125"/>
      </g>
     </g>
     <g id="text_4">
      <text style="font-family:Helvetica;font-size:10px;font-style:normal;font-weight:normal;" transform="translate(183.310229 199.167348)rotate(-30)">RF 15k</text>
     </g>
    </g>
    <g id="xtick_5">
     <g id="line2d_9">
      <path clip-path="url(#pa4d149adfb)" d="M 245.868983 169.840125 
L 245.868983 14.608125 
" style="fill:none;stroke:#b0b0b0;stroke-linecap:square;stroke-width:0.8;"/>
     </g>
     <g id="line2d_10">
      <g>
       <use style="stroke:#000000;stroke-width:0.8;" x="245.868983" xlink:href="#m4d8771cd4f" y="169.840125"/>
      </g>
     </g>
     <g id="text_5">
      <text style="font-family:Helvetica;font-size:10px;font-style:normal;font-weight:normal;" transform="translate(235.587252 196.39391)rotate(-30)">LR 45</text>
     </g>
    </g>
    <g id="xtick_6">
     <g id="line2d_11">
      <path clip-path="url(#pa4d149adfb)" d="M 295.744139 169.840125 
L 295.744139 14.608125 
" style="fill:none;stroke:#b0b0b0;stroke-linecap:square;stroke-width:0.8;"/>
     </g>
     <g id="line2d_12">
      <g>
       <use style="stroke:#000000;stroke-width:0.8;" x="295.744139" xlink:href="#m4d8771cd4f" y="169.840125"/>
      </g>
     </g>
     <g id="text_6">
      <text style="font-family:Helvetica;font-size:10px;font-style:normal;font-weight:normal;" transform="translate(283.297344 198.89391)rotate(-30)">LR 15k</text>
     </g>
    </g>
   </g>
   <g id="matplotlib.axis_2">
    <g id="ytick_1">
     <g id="line2d_13">
      <path clip-path="url(#pa4d149adfb)" d="M 31.55625 169.840125 
L 310.55625 169.840125 
" style="fill:none;stroke:#b0b0b0;stroke-linecap:square;stroke-width:0.8;"/>
     </g>
     <g id="line2d_14">
      <defs>
       <path d="M 0 0 
L -3.5 0 
" id="ma99243ce66" style="stroke:#000000;stroke-width:0.8;"/>
      </defs>
      <g>
       <use style="stroke:#000000;stroke-width:0.8;" x="31.55625" xlink:href="#ma99243ce66" y="169.840125"/>
      </g>
     </g>
     <g id="text_7">
      <text style="font-family:Helvetica;font-size:10px;font-style:normal;font-weight:normal;text-anchor:end;" transform="rotate(-0, 24.55625, 173.426844)" x="24.55625" y="173.426844">40</text>
     </g>
    </g>
    <g id="ytick_2">
     <g id="line2d_15">
      <path clip-path="url(#pa4d149adfb)" d="M 31.55625 143.968125 
L 310.55625 143.968125 
" style="fill:none;stroke:#b0b0b0;stroke-linecap:square;stroke-width:0.8;"/>
     </g>
     <g id="line2d_16">
      <g>
       <use style="stroke:#000000;stroke-width:0.8;" x="31.55625" xlink:href="#ma99243ce66" y="143.968125"/>
      </g>
     </g>
     <g id="text_8">
      <text style="font-family:Helvetica;font-size:10px;font-style:normal;font-weight:normal;text-anchor:end;" transform="rotate(-0, 24.55625, 147.554844)" x="24.55625" y="147.554844">45</text>
     </g>
    </g>
    <g id="ytick_3">
     <g id="line2d_17">
      <path clip-path="url(#pa4d149adfb)" d="M 31.55625 118.096125 
L 310.55625 118.096125 
" style="fill:none;stroke:#b0b0b0;stroke-linecap:square;stroke-width:0.8;"/>
     </g>
     <g id="line2d_18">
      <g>
       <use style="stroke:#000000;stroke-width:0.8;" x="31.55625" xlink:href="#ma99243ce66" y="118.096125"/>
      </g>
     </g>
     <g id="text_9">
      <text style="font-family:Helvetica;font-size:10px;font-style:normal;font-weight:normal;text-anchor:end;" transform="rotate(-0, 24.55625, 121.682844)" x="24.55625" y="121.682844">50</text>
     </g>
    </g>
    <g id="ytick_4">
     <g id="line2d_19">
      <path clip-path="url(#pa4d149adfb)" d="M 31.55625 92.224125 
L 310.55625 92.224125 
" style="fill:none;stroke:#b0b0b0;stroke-linecap:square;stroke-width:0.8;"/>
     </g>
     <g id="line2d_20">
      <g>
       <use style="stroke:#000000;stroke-width:0.8;" x="31.55625" xlink:href="#ma99243ce66" y="92.224125"/>
      </g>
     </g>
     <g id="text_10">
      <text style="font-family:Helvetica;font-size:10px;font-style:normal;font-weight:normal;text-anchor:end;" transform="rotate(-0, 24.55625, 95.810844)" x="24.55625" y="95.810844">55</text>
     </g>
    </g>
    <g id="ytick_5">
     <g id="line2d_21">
      <path clip-path="url(#pa4d149adfb)" d="M 31.55625 66.352125 
L 310.55625 66.352125 
" style="fill:none;stroke:#b0b0b0;stroke-linecap:square;stroke-width:0.8;"/>
     </g>
     <g id="line2d_22">
      <g>
       <use style="stroke:#000000;stroke-width:0.8;" x="31.55625" xlink:href="#ma99243ce66" y="66.352125"/>
      </g>
     </g>
     <g id="text_11">
      <text style="font-family:Helvetica;font-size:10px;font-style:normal;font-weight:normal;text-anchor:end;" transform="rotate(-0, 24.55625, 69.938844)" x="24.55625" y="69.938844">60</text>
     </g>
    </g>
    <g id="ytick_6">
     <g id="line2d_23">
      <path clip-path="url(#pa4d149adfb)" d="M 31.55625 40.480125 
L 310.55625 40.480125 
" style="fill:none;stroke:#b0b0b0;stroke-linecap:square;stroke-width:0.8;"/>
     </g>
     <g id="line2d_24">
      <g>
       <use style="stroke:#000000;stroke-width:0.8;" x="31.55625" xlink:href="#ma99243ce66" y="40.480125"/>
      </g>
     </g>
     <g id="text_12">
      <text style="font-family:Helvetica;font-size:10px;font-style:normal;font-weight:normal;text-anchor:end;" transform="rotate(-0, 24.55625, 44.066844)" x="24.55625" y="44.066844">65</text>
     </g>
    </g>
    <g id="ytick_7">
     <g id="line2d_25">
      <path clip-path="url(#pa4d149adfb)" d="M 31.55625 14.608125 
L 310.55625 14.608125 
" style="fill:none;stroke:#b0b0b0;stroke-linecap:square;stroke-width:0.8;"/>
     </g>
     <g id="line2d_26">
      <g>
       <use style="stroke:#000000;stroke-width:0.8;" x="31.55625" xlink:href="#ma99243ce66" y="14.608125"/>
      </g>
     </g>
     <g id="text_13">
      <text style="font-family:Helvetica;font-size:10px;font-style:normal;font-weight:normal;text-anchor:end;" transform="rotate(-0, 24.55625, 18.194844)" x="24.55625" y="18.194844">70</text>
     </g>
    </g>
    <g id="text_14">
     <text style="font-family:Helvetica;font-size:10px;font-style:normal;font-weight:normal;text-anchor:middle;" transform="rotate(-90, 7.290625, 92.224125)" x="7.290625" y="92.224125">Accuracy (%)</text>
    </g>
   </g>
   <g id="patch_3">
    <path d="M 31.55625 169.840125 
L 31.55625 14.608125 
" style="fill:none;stroke:#000000;stroke-linecap:square;stroke-linejoin:miter;stroke-width:0.8;"/>
   </g>
   <g id="patch_4">
    <path d="M 310.55625 169.840125 
L 310.55625 14.608125 
" style="fill:none;stroke:#000000;stroke-linecap:square;stroke-linejoin:miter;stroke-width:0.8;"/>
   </g>
   <g id="patch_5">
    <path d="M 31.55625 169.840125 
L 310.55625 169.840125 
" style="fill:none;stroke:#000000;stroke-linecap:square;stroke-linejoin:miter;stroke-width:0.8;"/>
   </g>
   <g id="patch_6">
    <path d="M 31.55625 14.608125 
L 310.55625 14.608125 
" style="fill:none;stroke:#000000;stroke-linecap:square;stroke-linejoin:miter;stroke-width:0.8;"/>
   </g>
   <g id="text_15">
    <text style="font-family:Helvetica;font-size:12px;font-style:normal;font-weight:normal;text-anchor:middle;" transform="rotate(-0, 171.05625, 8.608125)" x="171.05625" y="8.608125">45 vs 15k dimensions</text>
   </g>
   <g id="legend_1">
    <g id="patch_7">
     <path d="M 38.55625 51.12375 
L 142.251563 51.12375 
Q 144.251563 51.12375 144.251563 49.12375 
L 144.251563 21.608125 
Q 144.251563 19.608125 142.251563 19.608125 
L 38.55625 19.608125 
Q 36.55625 19.608125 36.55625 21.608125 
L 36.55625 49.12375 
Q 36.55625 51.12375 38.55625 51.12375 
z
" style="fill:#ffffff;opacity:0.8;stroke:#cccccc;stroke-linejoin:miter;"/>
    </g>
    <g id="PathCollection_3">
     <g>
      <use style="fill:#1f77b4;stroke:#1f77b4;" x="50.55625" xlink:href="#m12a1c2b9d8" y="28.156563"/>
     </g>
    </g>
    <g id="text_16">
     <text style="font-family:Helvetica;font-size:10px;font-style:normal;font-weight:normal;text-anchor:start;" transform="rotate(-0, 68.55625, 30.781563)" x="68.55625" y="30.781563">CountVectorizer</text>
    </g>
    <g id="PathCollection_4">
     <g>
      <use style="fill:#ff7f0e;stroke:#ff7f0e;" x="50.55625" xlink:href="#m00d6ba0842" y="42.414375"/>
     </g>
    </g>
    <g id="text_17">
     <text style="font-family:Helvetica;font-size:10px;font-style:normal;font-weight:normal;text-anchor:start;" transform="rotate(-0, 68.55625, 45.039375)" x="68.55625" y="45.039375">TfidfVectorizer</text>
    </g>
   </g>
  </g>
 </g>
 <defs>
  <clipPath id="pa4d149adfb">
   <rect height="155.232" width="279" x="31.55625" y="14.608125"/>
  </clipPath>
 </defs>
</svg>
