<?xml version="1.0" encoding="utf-8" standalone="no"?>
<!DOCTYPE svg PUBLIC "-//W3C//DTD SVG 1.1//EN"
  "http://www.w3.org/Graphics/SVG/1.1/DTD/svg11.dtd">
<!-- Created with matplotlib (https://matplotlib.org/) -->
<svg height="183.109688pt" version="1.1" viewBox="0 0 308.64375 183.109688" width="308.64375pt" xmlns="http://www.w3.org/2000/svg" xmlns:xlink="http://www.w3.org/1999/xlink">
 <defs>
  <style type="text/css">
*{stroke-linecap:butt;stroke-linejoin:round;white-space:pre;}
  </style>
 </defs>
 <g id="figure_1">
  <g id="patch_1">
   <path d="M 0 183.109688 
L 308.64375 183.109688 
L 308.64375 0 
L 0 0 
z
" style="fill:#ffffff;"/>
  </g>
  <g id="axes_1">
   <g id="patch_2">
    <path d="M 29.64375 153.4425 
L 308.64375 153.4425 
L 308.64375 14.8425 
L 29.64375 14.8425 
z
" style="fill:#ffffff;"/>
   </g>
   <g id="QuadMesh_1">
    <path clip-path="url(#p8a9c99d66e)" d="M 29.64375 14.8425 
L 122.64375 14.8425 
L 122.64375 61.0425 
L 29.64375 61.0425 
L 29.64375 14.8425 
" style="fill:#deebf7;"/>
    <path clip-path="url(#p8a9c99d66e)" d="M 122.64375 14.8425 
L 215.64375 14.8425 
L 215.64375 61.0425 
L 122.64375 61.0425 
L 122.64375 14.8425 
" style="fill:#bcd7eb;"/>
    <path clip-path="url(#p8a9c99d66e)" d="M 215.64375 14.8425 
L 308.64375 14.8425 
L 308.64375 61.0425 
L 215.64375 61.0425 
L 215.64375 14.8425 
" style="fill:#eff6fc;"/>
    <path clip-path="url(#p8a9c99d66e)" d="M 29.64375 61.0425 
L 122.64375 61.0425 
L 122.64375 107.2425 
L 29.64375 107.2425 
L 29.64375 61.0425 
" style="fill:#cddff1;"/>
    <path clip-path="url(#p8a9c99d66e)" d="M 122.64375 61.0425 
L 215.64375 61.0425 
L 215.64375 107.2425 
L 122.64375 107.2425 
L 122.64375 61.0425 
" style="fill:#3080bd;"/>
    <path clip-path="url(#p8a9c99d66e)" d="M 215.64375 61.0425 
L 308.64375 61.0425 
L 308.64375 107.2425 
L 215.64375 107.2425 
L 215.64375 61.0425 
" style="fill:#ddeaf7;"/>
    <path clip-path="url(#p8a9c99d66e)" d="M 29.64375 107.2425 
L 122.64375 107.2425 
L 122.64375 153.4425 
L 29.64375 153.4425 
L 29.64375 107.2425 
" style="fill:#e0ecf8;"/>
    <path clip-path="url(#p8a9c99d66e)" d="M 122.64375 107.2425 
L 215.64375 107.2425 
L 215.64375 153.4425 
L 122.64375 153.4425 
L 122.64375 107.2425 
" style="fill:#add0e6;"/>
    <path clip-path="url(#p8a9c99d66e)" d="M 215.64375 107.2425 
L 308.64375 107.2425 
L 308.64375 153.4425 
L 215.64375 153.4425 
L 215.64375 107.2425 
" style="fill:#d0e1f2;"/>
   </g>
   <g id="matplotlib.axis_1">
    <g id="xtick_1">
     <g id="line2d_1">
      <defs>
       <path d="M 0 0 
L 0 3.5 
" id="m5bbb452364" style="stroke:#000000;stroke-width:0.8;"/>
      </defs>
      <g>
       <use style="stroke:#000000;stroke-width:0.8;" x="76.14375" xlink:href="#m5bbb452364" y="153.4425"/>
      </g>
     </g>
     <g id="text_1">
      <text style="font-family:Helvetica;font-size:10px;font-style:normal;font-weight:normal;text-anchor:middle;" transform="rotate(-0, 76.14375, 167.615938)" x="76.14375" y="167.615938">negative</text>
     </g>
    </g>
    <g id="xtick_2">
     <g id="line2d_2">
      <g>
       <use style="stroke:#000000;stroke-width:0.8;" x="169.14375" xlink:href="#m5bbb452364" y="153.4425"/>
      </g>
     </g>
     <g id="text_2">
      <text style="font-family:Helvetica;font-size:10px;font-style:normal;font-weight:normal;text-anchor:middle;" transform="rotate(-0, 169.14375, 167.615938)" x="169.14375" y="167.615938">neutral</text>
     </g>
    </g>
    <g id="xtick_3">
     <g id="line2d_3">
      <g>
       <use style="stroke:#000000;stroke-width:0.8;" x="262.14375" xlink:href="#m5bbb452364" y="153.4425"/>
      </g>
     </g>
     <g id="text_3">
      <text style="font-family:Helvetica;font-size:10px;font-style:normal;font-weight:normal;text-anchor:middle;" transform="rotate(-0, 262.14375, 167.615938)" x="262.14375" y="167.615938">positive</text>
     </g>
    </g>
    <g id="text_4">
     <text style="font-family:Helvetica;font-size:10px;font-style:normal;font-weight:normal;text-anchor:middle;" transform="rotate(-0, 169.14375, 181.025313)" x="169.14375" y="181.025313">predicted labels</text>
    </g>
   </g>
   <g id="matplotlib.axis_2">
    <g id="ytick_1">
     <g id="line2d_4">
      <defs>
       <path d="M 0 0 
L -3.5 0 
" id="m65110de8c1" style="stroke:#000000;stroke-width:0.8;"/>
      </defs>
      <g>
       <use style="stroke:#000000;stroke-width:0.8;" x="29.64375" xlink:href="#m65110de8c1" y="37.9425"/>
      </g>
     </g>
     <g id="text_5">
      <text style="font-family:Helvetica;font-size:10px;font-style:normal;font-weight:normal;" transform="translate(20.43125 72.160469)rotate(-90)">negative</text>
     </g>
    </g>
    <g id="ytick_2">
     <g id="line2d_5">
      <g>
       <use style="stroke:#000000;stroke-width:0.8;" x="29.64375" xlink:href="#m65110de8c1" y="84.1425"/>
      </g>
     </g>
     <g id="text_6">
      <text style="font-family:Helvetica;font-size:10px;font-style:normal;font-weight:normal;" transform="translate(20.559375 111.129219)rotate(-90)">neutral</text>
     </g>
    </g>
    <g id="ytick_3">
     <g id="line2d_6">
      <g>
       <use style="stroke:#000000;stroke-width:0.8;" x="29.64375" xlink:href="#m65110de8c1" y="130.3425"/>
      </g>
     </g>
     <g id="text_7">
      <text style="font-family:Helvetica;font-size:10px;font-style:normal;font-weight:normal;" transform="translate(20.559375 160.660469)rotate(-90)">positive</text>
     </g>
    </g>
    <g id="text_8">
     <text style="font-family:Helvetica;font-size:10px;font-style:normal;font-weight:normal;text-anchor:middle;" transform="rotate(-90, 7.173438, 84.1425)" x="7.173438" y="84.1425">true labels</text>
    </g>
   </g>
   <g id="text_9">
    <text style="fill:#262626;font-family:Helvetica;font-size:10px;font-style:normal;font-weight:normal;text-anchor:middle;" transform="rotate(-0, 76.14375, 40.487031)" x="76.14375" y="40.487031">291</text>
   </g>
   <g id="text_10">
    <text style="fill:#262626;font-family:Helvetica;font-size:10px;font-style:normal;font-weight:normal;text-anchor:middle;" transform="rotate(-0, 169.14375, 40.487031)" x="169.14375" y="40.487031">650</text>
   </g>
   <g id="text_11">
    <text style="fill:#262626;font-family:Helvetica;font-size:10px;font-style:normal;font-weight:normal;text-anchor:middle;" transform="rotate(-0, 262.14375, 40.487031)" x="262.14375" y="40.487031">97</text>
   </g>
   <g id="text_12">
    <text style="fill:#262626;font-family:Helvetica;font-size:10px;font-style:normal;font-weight:normal;text-anchor:middle;" transform="rotate(-0, 76.14375, 86.687031)" x="76.14375" y="86.687031">503</text>
   </g>
   <g id="text_13">
    <text style="fill:#ffffff;font-family:Helvetica;font-size:10px;font-style:normal;font-weight:normal;text-anchor:middle;" transform="rotate(-0, 169.14375, 86.687031)" x="169.14375" y="86.687031">1593</text>
   </g>
   <g id="text_14">
    <text style="fill:#262626;font-family:Helvetica;font-size:10px;font-style:normal;font-weight:normal;text-anchor:middle;" transform="rotate(-0, 262.14375, 86.687031)" x="262.14375" y="86.687031">304</text>
   </g>
   <g id="text_15">
    <text style="fill:#262626;font-family:Helvetica;font-size:10px;font-style:normal;font-weight:normal;text-anchor:middle;" transform="rotate(-0, 76.14375, 132.887031)" x="76.14375" y="132.887031">267</text>
   </g>
   <g id="text_16">
    <text style="fill:#262626;font-family:Helvetica;font-size:10px;font-style:normal;font-weight:normal;text-anchor:middle;" transform="rotate(-0, 169.14375, 132.887031)" x="169.14375" y="132.887031">759</text>
   </g>
   <g id="text_17">
    <text style="fill:#262626;font-family:Helvetica;font-size:10px;font-style:normal;font-weight:normal;text-anchor:middle;" transform="rotate(-0, 262.14375, 132.887031)" x="262.14375" y="132.887031">462</text>
   </g>
   <g id="text_18">
    <text style="font-family:Helvetica;font-size:12px;font-style:normal;font-weight:normal;text-anchor:middle;" transform="rotate(-0, 169.14375, 8.8425)" x="169.14375" y="8.8425">Count KNeighbors 45</text>
   </g>
  </g>
 </g>
 <defs>
  <clipPath id="p8a9c99d66e">
   <rect height="138.6" width="279" x="29.64375" y="14.8425"/>
  </clipPath>
 </defs>
</svg>
