<?xml version="1.0" encoding="utf-8" standalone="no"?>
<!DOCTYPE svg PUBLIC "-//W3C//DTD SVG 1.1//EN"
  "http://www.w3.org/Graphics/SVG/1.1/DTD/svg11.dtd">
<!-- Created with matplotlib (https://matplotlib.org/) -->
<svg height="154.985938pt" version="1.1" viewBox="0 0 295.257812 154.985938" width="295.257812pt" xmlns="http://www.w3.org/2000/svg" xmlns:xlink="http://www.w3.org/1999/xlink">
 <defs>
  <style type="text/css">
*{stroke-linecap:butt;stroke-linejoin:round;white-space:pre;}
  </style>
 </defs>
 <g id="figure_1">
  <g id="patch_1">
   <path d="M 0 154.985938 
L 295.257812 154.985938 
L 295.257812 0 
L 0 0 
z
" style="fill:#ffffff;"/>
  </g>
  <g id="axes_1">
   <g id="patch_2">
    <path d="M 16.257812 138.6 
L 295.257812 138.6 
L 295.257812 0 
L 16.257812 0 
z
" style="fill:#ffffff;"/>
   </g>
   <g id="QuadMesh_1">
    <path clip-path="url(#p40635908b3)" d="M 16.257812 0 
L 109.257812 0 
L 109.257812 69.3 
L 16.257812 69.3 
L 16.257812 0 
" style="fill:#f1faeb;"/>
    <path clip-path="url(#p40635908b3)" d="M 109.257812 0 
L 202.257812 0 
L 202.257812 69.3 
L 109.257812 69.3 
L 109.257812 0 
" style="fill:#084081;"/>
    <path clip-path="url(#p40635908b3)" d="M 202.257812 0 
L 295.257812 0 
L 295.257812 69.3 
L 202.257812 69.3 
L 202.257812 0 
" style="fill:#ccebc6;"/>
    <path clip-path="url(#p40635908b3)" d="M 16.257812 69.3 
L 109.257812 69.3 
L 109.257812 138.6 
L 16.257812 138.6 
L 16.257812 69.3 
" style="fill:#f7fcf0;"/>
    <path clip-path="url(#p40635908b3)" d="M 109.257812 69.3 
L 202.257812 69.3 
L 202.257812 138.6 
L 109.257812 138.6 
L 109.257812 69.3 
" style="fill:#084b8d;"/>
    <path clip-path="url(#p40635908b3)" d="M 202.257812 69.3 
L 295.257812 69.3 
L 295.257812 138.6 
L 202.257812 138.6 
L 202.257812 69.3 
" style="fill:#b9e3bc;"/>
   </g>
   <g id="matplotlib.axis_1">
    <g id="xtick_1">
     <g id="line2d_1">
      <defs>
       <path d="M 0 0 
L 0 3.5 
" id="m106963ccfe" style="stroke:#000000;stroke-width:0.8;"/>
      </defs>
      <g>
       <use style="stroke:#000000;stroke-width:0.8;" x="62.757812" xlink:href="#m106963ccfe" y="138.6"/>
      </g>
     </g>
     <g id="text_1">
      <text style="font-family:Helvetica;font-size:10px;font-style:normal;font-weight:normal;text-anchor:middle;" transform="rotate(-0, 62.757812, 152.773438)" x="62.757812" y="152.773438">negative</text>
     </g>
    </g>
    <g id="xtick_2">
     <g id="line2d_2">
      <g>
       <use style="stroke:#000000;stroke-width:0.8;" x="155.757812" xlink:href="#m106963ccfe" y="138.6"/>
      </g>
     </g>
     <g id="text_2">
      <text style="font-family:Helvetica;font-size:10px;font-style:normal;font-weight:normal;text-anchor:middle;" transform="rotate(-0, 155.757812, 152.773438)" x="155.757812" y="152.773438">neutral</text>
     </g>
    </g>
    <g id="xtick_3">
     <g id="line2d_3">
      <g>
       <use style="stroke:#000000;stroke-width:0.8;" x="248.757812" xlink:href="#m106963ccfe" y="138.6"/>
      </g>
     </g>
     <g id="text_3">
      <text style="font-family:Helvetica;font-size:10px;font-style:normal;font-weight:normal;text-anchor:middle;" transform="rotate(-0, 248.757812, 152.773438)" x="248.757812" y="152.773438">positive</text>
     </g>
    </g>
   </g>
   <g id="matplotlib.axis_2">
    <g id="ytick_1">
     <g id="line2d_4">
      <defs>
       <path d="M 0 0 
L -3.5 0 
" id="m6770489047" style="stroke:#000000;stroke-width:0.8;"/>
      </defs>
      <g>
       <use style="stroke:#000000;stroke-width:0.8;" x="16.257812" xlink:href="#m6770489047" y="34.65"/>
      </g>
     </g>
     <g id="text_4">
      <text style="font-family:Helvetica;font-size:10px;font-style:normal;font-weight:normal;" transform="translate(7.173437 50.514844)rotate(-90)">train</text>
     </g>
    </g>
    <g id="ytick_2">
     <g id="line2d_5">
      <g>
       <use style="stroke:#000000;stroke-width:0.8;" x="16.257812" xlink:href="#m6770489047" y="103.95"/>
      </g>
     </g>
     <g id="text_5">
      <text style="font-family:Helvetica;font-size:10px;font-style:normal;font-weight:normal;" transform="translate(7.173437 118.707031)rotate(-90)">eval</text>
     </g>
    </g>
   </g>
   <g id="text_6">
    <text style="fill:#262626;font-family:Helvetica;font-size:10px;font-style:normal;font-weight:normal;text-anchor:middle;" transform="rotate(-0, 62.757812, 37.194531)" x="62.757812" y="37.194531">22.021%</text>
   </g>
   <g id="text_7">
    <text style="fill:#ffffff;font-family:Helvetica;font-size:10px;font-style:normal;font-weight:normal;text-anchor:middle;" transform="rotate(-0, 155.757812, 37.194531)" x="155.757812" y="37.194531">49.828%</text>
   </g>
   <g id="text_8">
    <text style="fill:#262626;font-family:Helvetica;font-size:10px;font-style:normal;font-weight:normal;text-anchor:middle;" transform="rotate(-0, 248.757812, 37.194531)" x="248.757812" y="37.194531">28.151%</text>
   </g>
   <g id="text_9">
    <text style="fill:#262626;font-family:Helvetica;font-size:10px;font-style:normal;font-weight:normal;text-anchor:middle;" transform="rotate(-0, 62.757812, 106.494531)" x="62.757812" y="106.494531">21.072%</text>
   </g>
   <g id="text_10">
    <text style="fill:#ffffff;font-family:Helvetica;font-size:10px;font-style:normal;font-weight:normal;text-anchor:middle;" transform="rotate(-0, 155.757812, 106.494531)" x="155.757812" y="106.494531">48.721%</text>
   </g>
   <g id="text_11">
    <text style="fill:#262626;font-family:Helvetica;font-size:10px;font-style:normal;font-weight:normal;text-anchor:middle;" transform="rotate(-0, 248.757812, 106.494531)" x="248.757812" y="106.494531">30.207%</text>
   </g>
  </g>
 </g>
 <defs>
  <clipPath id="p40635908b3">
   <rect height="138.6" width="279" x="16.257812" y="0"/>
  </clipPath>
 </defs>
</svg>
